<svg viewBox="0 0 32 32" fill="none" xmlns="http://www.w3.org/2000/svg">
	<path d="M1 14.2353L15.0581 27.4706V19.5294C24.4302 19.5294 27.2418 22.1765 30.9906 31C30.9906 21.2941 31.9278 14.2353 15.0581 8.94118V1L1 14.2353Z" fill="#D7D7D7"/>
	<path d="M15.0581 27.4706L14.3726 28.1987C14.6631 28.4722 15.0884 28.5468 15.4547 28.3886C15.8209 28.2304 16.0581 27.8696 16.0581 27.4706H15.0581ZM1 14.2353L0.314522 13.5072C0.113804 13.6962 0 13.9596 0 14.2353C0 14.511 0.113804 14.7744 0.314522 14.9634L1 14.2353ZM15.0581 1H16.0581C16.0581 0.601017 15.8209 0.240213 15.4547 0.0819918C15.0884 -0.0762296 14.6631 -0.00158748 14.3726 0.271907L15.0581 1ZM15.0581 8.94118H14.0581C14.0581 9.37812 14.3418 9.76447 14.7587 9.8953L15.0581 8.94118ZM30.9906 31L30.0703 31.391C30.2561 31.8286 30.7243 32.0747 31.1902 31.9799C31.656 31.885 31.9906 31.4754 31.9906 31H30.9906ZM15.0581 19.5294V18.5294C14.5058 18.5294 14.0581 18.9771 14.0581 19.5294H15.0581ZM15.7436 26.7425L1.68548 13.5072L0.314522 14.9634L14.3726 28.1987L15.7436 26.7425ZM1.68548 14.9634L15.7436 1.72809L14.3726 0.271907L0.314522 13.5072L1.68548 14.9634ZM14.0581 1V8.94118H16.0581V1H14.0581ZM31.911 30.609C30.0332 26.1892 28.3086 23.0957 25.7347 21.1571C23.1296 19.195 19.815 18.5294 15.0581 18.5294V20.5294C19.6733 20.5294 22.4505 21.1873 24.5315 22.7547C26.6436 24.3455 28.1992 26.9873 30.0703 31.391L31.911 30.609ZM14.0581 19.5294V27.4706H16.0581V19.5294H14.0581ZM31.9906 31C31.9906 26.2667 32.2527 21.7675 30.2395 17.8583C28.1841 13.8671 23.8913 10.6651 15.3575 7.98706L14.7587 9.8953C23.0947 12.5113 26.7681 15.4859 28.4615 18.774C30.1971 22.1443 29.9906 26.0274 29.9906 31H31.9906Z" fill="#D7D7D7"/>
</svg>
