<svg width="11" height="1" viewBox="0 0 11 1" fill="none" xmlns="http://www.w3.org/2000/svg">
	<g clip-path="url(#clip0_128_4)">
		<path d="M0 1H11V0.339622C10.3125 -0.0880503 9.31429 -0.104761 8.9375 0.339622C8.71406 0.641509 8.25 0.641509 7.5625 0.339622C7.09844 0.188679 6.65156 0.188679 6.1875 0.339622C5.27656 0.641509 4.46875 0.641509 3.78125 0.339622C2.87031 -0.113207 1.94219 -0.113207 1.03125 0.339622C0.6875 0.490566 0.34375 0.490566 0 0.339622V1Z" fill="#313131" fill-opacity="0.6"/>
		<path d="M0 0.999965H11V0.482445C10.3125 0.054772 9.31429 0.0380616 8.9375 0.482445C8.71406 0.784331 8.25 0.784331 7.5625 0.482445C7.09844 0.331501 6.65156 0.331501 6.1875 0.482445C5.27656 0.784331 4.46875 0.784331 3.78125 0.482445C2.87031 0.0296148 1.94219 0.0296148 1.03125 0.482445C0.6875 0.633388 0.34375 0.633388 0 0.482445V0.999965Z" fill="#313131" fill-opacity="0.8"/>
		<path d="M0 1.00004H11V0.672997C10.3125 0.245324 9.31429 0.228613 8.9375 0.672997C8.71406 0.974883 8.25 0.974883 7.5625 0.672997C7.09844 0.522053 6.65156 0.522053 6.1875 0.672997C5.27656 0.974883 4.46875 0.974883 3.78125 0.672997C2.87031 0.220167 1.94219 0.220167 1.03125 0.672997C0.6875 0.82394 0.34375 0.82394 0 0.672997V1.00004Z" fill="#313131"/>
	</g>
	<defs>
		<clipPath id="clip0_128_4">
			<rect width="11" height="1" fill="#313131"/>
		</clipPath>
	</defs>
</svg>
