<svg viewBox="0 0 34 22" fill="none" xmlns="http://www.w3.org/2000/svg">
	<path d="M24.6614 10.9658C24.6635 11.2885 24.5682 11.6045 24.3879 11.8738C24.2075 12.1431 23.9501 12.3534 23.6483 12.4782C23.3465 12.603 23.0139 12.6365 22.6927 12.5746C22.3716 12.5127 22.0763 12.3581 21.8444 12.1305C21.6124 11.9028 21.4543 11.6123 21.39 11.2959C21.3257 10.9795 21.3582 10.6514 21.4833 10.3532C21.6084 10.055 21.8205 9.80015 22.0927 9.62102C22.3649 9.44189 22.6849 9.3465 23.0122 9.34701C23.4483 9.34701 23.8666 9.51731 24.1757 9.82069C24.4847 10.1241 24.6594 10.5358 24.6614 10.9658ZM17 6.77461C16.6739 6.77511 16.3553 6.87093 16.0844 7.04993C15.8135 7.22896 15.6025 7.48314 15.4781 7.78037C15.3537 8.0776 15.3214 8.40453 15.3853 8.71987C15.4492 9.03518 15.6065 9.32475 15.8373 9.55194C16.068 9.77916 16.3619 9.9338 16.6817 9.99636C17.0016 10.0589 17.3331 10.0265 17.6343 9.90337C17.9355 9.78019 18.1929 9.57174 18.374 9.30434C18.5551 9.03693 18.6518 8.72257 18.6518 8.40101C18.6518 8.18723 18.6091 7.97552 18.526 7.77802C18.443 7.58055 18.3213 7.40114 18.1679 7.25008C18.0144 7.09903 17.8323 6.97926 17.6319 6.89769C17.4315 6.81609 17.2168 6.77428 17 6.77461ZM10.9724 9.34701C10.6463 9.34751 10.3277 9.44333 10.0568 9.62233C9.78596 9.80136 9.57497 10.0555 9.45054 10.3528C9.32612 10.65 9.2938 10.9769 9.35774 11.2923C9.42166 11.6076 9.57894 11.8972 9.80968 12.1243C10.0405 12.3516 10.3343 12.5062 10.6542 12.5688C10.974 12.6313 11.3055 12.599 11.6067 12.4758C11.9079 12.3526 12.1653 12.1441 12.3464 11.8767C12.5276 11.6093 12.6242 11.295 12.6242 10.9734C12.6242 10.7596 12.5815 10.5479 12.4984 10.3504C12.4154 10.153 12.2937 9.97354 12.1403 9.82248C11.9868 9.67143 11.8047 9.55166 11.6043 9.47009C11.404 9.38849 11.1892 9.34668 10.9724 9.34701ZM8.62294 15.2532C8.29602 15.2527 7.97633 15.3478 7.70429 15.5266C7.43225 15.7054 7.22014 15.9598 7.09479 16.2576C6.96947 16.5553 6.93653 16.8831 7.00019 17.1993C7.06383 17.5155 7.22121 17.806 7.45236 18.0339C7.68354 18.2619 7.9781 18.4171 8.29876 18.4798C8.6194 18.5426 8.95174 18.5101 9.25368 18.3866C9.55563 18.2629 9.81358 18.0538 9.99487 17.7855C10.1762 17.5172 10.2727 17.202 10.2722 16.8796C10.2722 16.4482 10.0984 16.0345 9.78914 15.7295C9.47983 15.4245 9.06034 15.2532 8.62294 15.2532ZM2.2055 12.1293C2.02541 12.1026 1.84181 12.1456 1.69312 12.2493C1.54444 12.353 1.4422 12.5094 1.40781 12.6858C0.864064 15.4585 0.864064 18.3082 1.40781 21.0809C1.4422 21.2573 1.54444 21.4137 1.69312 21.5174C1.84181 21.6211 2.02541 21.6641 2.2055 21.6374C4.42673 21.301 5.45783 19.3002 5.45783 16.8821C5.45783 14.464 4.42673 12.4607 2.2055 12.1293ZM30.9917 9.85289C31.1381 9.7465 31.2371 9.58841 31.2684 9.41166C31.2995 9.2349 31.26 9.05317 31.1584 8.90436C29.5545 6.56315 27.51 4.54707 25.1359 2.96533C24.9847 2.86499 24.7999 2.82608 24.6203 2.85671C24.4406 2.88734 24.2799 2.98514 24.1715 3.12974C22.8429 4.9155 23.5482 7.05031 25.2821 8.76019C27.016 10.4701 29.1808 11.1656 30.9917 9.85289ZM9.85924 3.05892C9.75174 2.91397 9.59141 2.81582 9.41199 2.78516C9.23258 2.75449 9.04808 2.79369 8.89739 2.89451C6.52258 4.47847 4.47813 6.49718 2.87495 8.84113C2.77533 8.99054 2.73813 9.17212 2.77111 9.34794C2.80409 9.52376 2.90471 9.68021 3.05193 9.78459C4.86276 11.0974 7.02756 10.3992 8.76145 8.68936C10.4953 6.97949 11.1904 4.84467 9.85924 3.05892ZM28.5396 16.8796C28.5396 19.3002 29.5656 21.301 31.7919 21.6374C31.9722 21.6642 32.1561 21.6213 32.3054 21.5176C32.4544 21.4139 32.5573 21.2575 32.5922 21.0809C33.1359 18.3082 33.1359 15.4585 32.5922 12.6858C32.5573 12.5092 32.4544 12.3528 32.3054 12.2491C32.1561 12.1455 31.9722 12.1025 31.7919 12.1293C29.5733 12.4582 28.5396 14.4589 28.5396 16.8796ZM17.0154 5.39608C19.4675 5.39608 21.4989 4.38432 21.8374 2.1888C21.8646 2.01157 21.8214 1.83082 21.7167 1.68427C21.6121 1.53771 21.4541 1.43665 21.2757 1.40216C18.4641 0.865947 15.5744 0.865947 12.7627 1.40216C12.5839 1.43608 12.4253 1.5369 12.3201 1.68352C12.2149 1.83015 12.1713 2.01121 12.1985 2.1888C12.5422 4.37926 14.5607 5.39608 17.0154 5.39608ZM26.362 16.3155L17.4155 14.5677C17.3823 14.5639 17.3487 14.5639 17.3155 14.5677H17.3001C17.2033 14.5532 17.1055 14.5465 17.0077 14.5475C16.6783 14.5382 16.3506 14.5967 16.0453 14.719C15.74 14.8413 15.4639 15.0249 15.2343 15.258C15.0048 15.4912 14.8269 15.7688 14.712 16.0734C14.597 16.3779 14.5476 16.7027 14.5666 17.0271C14.5857 17.3515 14.673 17.6685 14.8229 17.9578C14.9728 18.2472 15.182 18.5027 15.4373 18.7081C15.6927 18.9136 15.9885 19.0644 16.3061 19.1511C16.6237 19.2377 16.9561 19.2584 17.2821 19.2117C17.3264 19.2176 17.3713 19.2176 17.4155 19.2117L26.3594 17.4664C26.4995 17.4462 26.6272 17.3771 26.7198 17.2716C26.8124 17.1662 26.8637 17.0315 26.8639 16.892C26.8642 16.7526 26.8137 16.6176 26.7216 16.5118C26.6295 16.406 26.5018 16.3363 26.362 16.3155Z" fill="#D13D26" stroke="#231F20" stroke-width="0.4" stroke-miterlimit="10"/>
</svg>
