<svg viewBox="0 0 28 34" fill="none" xmlns="http://www.w3.org/2000/svg">
	<path d="M10.8145 1H8.9214C8.64526 1 8.4214 1.22385 8.4214 1.49999L8.42136 3.77559C8.42135 4.05173 8.19749 4.27559 7.92135 4.27559L5.5283 4.27556C1.75474 4.27531 1.00001 5.03145 1 8.55902V25.4409C0.999902 28.9685 1.75474 29.7244 5.27672 29.7244L7.92136 29.7244C8.1975 29.7244 8.42135 29.9483 8.42136 30.2244L8.4214 32.5C8.4214 32.7761 8.64526 33 8.9214 33H10.8145C11.0906 33 11.3145 32.7761 11.3145 32.5V30.2244C11.3145 29.9482 11.5383 29.7244 11.8145 29.7244L17.2296 29.7244C17.5057 29.7244 17.7296 29.9483 17.7296 30.2244V32.5C17.7296 32.7761 17.9534 33 18.2296 33H20.1227C20.3988 33 20.6227 32.7761 20.6227 32.5L20.6226 30.2244C20.6226 29.9482 20.8465 29.7244 21.1226 29.7244H23.3899C26.9119 29.7244 27.6667 28.9685 27.6667 25.4409V23.6732C27.6667 23.3971 27.4428 23.1732 27.1667 23.1732H21.1226C20.8465 23.1732 20.6226 23.3971 20.6226 23.6732V24.689C20.6226 24.9651 20.3988 25.189 20.1226 25.189H8.92135C8.64521 25.189 8.42135 24.9651 8.42135 24.689V9.31099C8.42135 9.03485 8.64521 8.81099 8.92135 8.81099H20.1226C20.3988 8.81099 20.6226 9.03485 20.6226 9.31099V10.3268C20.6226 10.6029 20.8465 10.8268 21.1226 10.8268H27.1667C27.4428 10.8268 27.6667 10.6029 27.6667 10.3268V8.55902C27.6667 5.03149 26.9119 4.27556 23.3899 4.27556L21.1227 4.27558C20.8465 4.27559 20.6227 4.05173 20.6227 3.77558V1.5C20.6227 1.22386 20.3988 1 20.1227 1H18.2296C17.9534 1 17.7296 1.22386 17.7296 1.5V3.77559C17.7296 4.05173 17.5057 4.27559 17.2296 4.27559H11.8145C11.5383 4.27559 11.3145 4.05173 11.3145 3.77559V1.5C11.3145 1.22386 11.0906 1 10.8145 1Z" fill="#F8C73D"/>
	<path d="M8.42136 30.2244L8.17136 30.2244L8.42136 30.2244ZM8.4214 32.5L8.6714 32.5L8.4214 32.5ZM1 25.4409L1.25 25.4409V25.4409H1ZM1 8.55902L0.75 8.55902V8.55902H1ZM5.5283 4.27556L5.52828 4.52556H5.52829L5.5283 4.27556ZM5.27672 29.7244L5.27673 29.4744H5.27672V29.7244ZM23.3899 4.27556V4.02556H23.3899L23.3899 4.27556ZM7.92136 29.7244L7.92137 29.4744H7.92137L7.92136 29.7244ZM11.8145 29.7244L11.8145 29.4744H11.8145V29.7244ZM17.2296 29.7244L17.2296 29.9744H17.2296V29.7244ZM20.6227 32.5H20.8727H20.6227ZM20.6226 30.2244H20.8726V30.2244L20.6226 30.2244ZM21.1227 4.27558L21.1227 4.02558L21.1227 4.27558ZM8.4214 1.49999L8.6714 1.5V1.5L8.4214 1.49999ZM8.42136 3.77559L8.17136 3.77559V3.77559L8.42136 3.77559ZM7.92135 4.27559L7.92136 4.02559L7.92135 4.27559ZM8.9214 1.25H10.8145V0.75H8.9214V1.25ZM11.0645 1.5V3.77559H11.5645V1.5H11.0645ZM18.2296 1.25H20.1227V0.75H18.2296V1.25ZM20.3727 1.5V3.77558H20.8727V1.5H20.3727ZM8.17136 30.2244L8.1714 32.5L8.6714 32.5L8.67136 30.2244L8.17136 30.2244ZM8.9214 33.25H10.8145V32.75H8.9214V33.25ZM17.4796 30.2244V32.5H17.9796V30.2244H17.4796ZM18.2296 33.25H20.1227V32.75H18.2296V33.25ZM27.1667 10.5768H21.1226V11.0768H27.1667V10.5768ZM20.8726 10.3268V9.31099H20.3726V10.3268H20.8726ZM20.1226 8.56099H8.92135V9.06099H20.1226V8.56099ZM8.17135 9.31099V24.689H8.67135V9.31099H8.17135ZM8.92135 25.439H20.1226V24.939H8.92135V25.439ZM20.8726 24.689V23.6732H20.3726V24.689H20.8726ZM21.1226 23.4232H27.1667V22.9232H21.1226V23.4232ZM1.25 25.4409V8.55902H0.75V25.4409H1.25ZM5.52831 4.02556C4.57972 4.0255 3.80449 4.07267 3.17753 4.20399C2.54844 4.33576 2.05156 4.55569 1.67651 4.91346C0.929671 5.62589 0.750006 6.80526 0.75 8.55902L1.25 8.55903C1.25001 6.78521 1.44771 5.82273 2.02163 5.27525C2.30695 5.00307 2.70629 4.81354 3.28003 4.69337C3.8559 4.57275 4.59009 4.5255 5.52828 4.52556L5.52831 4.02556ZM5.27672 29.4744C4.40194 29.4744 3.71607 29.4271 3.17695 29.3071C2.64068 29.1878 2.26503 28.9998 1.99449 28.7288C1.72392 28.4578 1.53618 28.0815 1.41698 27.5442C1.29716 27.0042 1.24998 26.3171 1.25 25.4409L0.75 25.4409C0.749975 26.3285 0.797113 27.0588 0.928852 27.6525C1.06122 28.2491 1.28229 28.7232 1.64067 29.0821C1.99907 29.4411 2.4725 29.6626 3.06832 29.7952C3.66129 29.9271 4.39051 29.9744 5.27672 29.9744V29.4744ZM27.4167 23.6732V25.4409H27.9167V23.6732H27.4167ZM27.4167 25.4409C27.4167 26.3171 27.3695 27.0042 27.2496 27.5442C27.1304 28.0815 26.9427 28.4578 26.6721 28.7288C26.4016 28.9998 26.026 29.1878 25.4897 29.3071C24.9506 29.4271 24.2647 29.4744 23.3899 29.4744V29.9744C24.2762 29.9744 25.0054 29.9271 25.5983 29.7952C26.1942 29.6626 26.6676 29.4411 27.026 29.0821C27.3843 28.7232 27.6054 28.2491 27.7378 27.6525C27.8695 27.0588 27.9167 26.3285 27.9167 25.4409H27.4167ZM23.3899 4.52556C24.2647 4.52556 24.9506 4.57283 25.4897 4.69282C26.026 4.81218 26.4016 5.00014 26.6721 5.2711C26.9427 5.54209 27.1304 5.91844 27.2496 6.4557C27.3695 6.99579 27.4167 7.68283 27.4167 8.55902H27.9167C27.9167 7.67145 27.8695 6.94117 27.7378 6.3474C27.6054 5.75081 27.3843 5.27676 27.026 4.91783C26.6676 4.55886 26.1942 4.33738 25.5983 4.20476C25.0054 4.07278 24.2762 4.02556 23.3899 4.02556V4.52556ZM27.4167 8.55902V10.3268H27.9167V8.55902H27.4167ZM5.27672 29.9744L7.92136 29.9744L7.92137 29.4744L5.27673 29.4744L5.27672 29.9744ZM11.5645 32.5V30.2244H11.0645V32.5H11.5645ZM11.8145 29.9744L17.2296 29.9744L17.2296 29.4744L11.8145 29.4744L11.8145 29.9744ZM20.8727 32.5L20.8726 30.2244H20.3726L20.3727 32.5H20.8727ZM21.1226 29.9744H23.3899V29.4744H21.1226V29.9744ZM23.3899 4.02556L21.1227 4.02558L21.1227 4.52558L23.3899 4.52556L23.3899 4.02556ZM17.4796 1.5V3.77559H17.9796V1.5H17.4796ZM17.2296 4.02559H11.8145V4.52559H17.2296V4.02559ZM8.1714 1.49999L8.17136 3.77559L8.67136 3.7756L8.6714 1.5L8.1714 1.49999ZM7.92136 4.02559L5.5283 4.02556L5.52829 4.52556L7.92135 4.52559L7.92136 4.02559ZM8.17136 3.77559C8.17136 3.91366 8.05943 4.02559 7.92136 4.02559L7.92135 4.52559C8.33556 4.52559 8.67135 4.18981 8.67136 3.7756L8.17136 3.77559ZM27.1667 23.4232C27.3047 23.4232 27.4167 23.5351 27.4167 23.6732H27.9167C27.9167 23.259 27.5809 22.9232 27.1667 22.9232V23.4232ZM20.8726 23.6732C20.8726 23.5351 20.9846 23.4232 21.1226 23.4232V22.9232C20.7084 22.9232 20.3726 23.259 20.3726 23.6732H20.8726ZM20.1226 25.439C20.5369 25.439 20.8726 25.1032 20.8726 24.689H20.3726C20.3726 24.827 20.2607 24.939 20.1226 24.939V25.439ZM8.17135 24.689C8.17135 25.1032 8.50714 25.439 8.92135 25.439V24.939C8.78328 24.939 8.67135 24.827 8.67135 24.689H8.17135ZM8.92135 8.56099C8.50714 8.56099 8.17135 8.89678 8.17135 9.31099H8.67135C8.67135 9.17292 8.78328 9.06099 8.92135 9.06099V8.56099ZM20.8726 9.31099C20.8726 8.89678 20.5369 8.56099 20.1226 8.56099V9.06099C20.2607 9.06099 20.3726 9.17292 20.3726 9.31099H20.8726ZM21.1226 10.5768C20.9846 10.5768 20.8726 10.4648 20.8726 10.3268H20.3726C20.3726 10.741 20.7084 11.0768 21.1226 11.0768V10.5768ZM27.1667 11.0768C27.5809 11.0768 27.9167 10.741 27.9167 10.3268H27.4167C27.4167 10.4648 27.3047 10.5768 27.1667 10.5768V11.0768ZM20.1227 33.25C20.5369 33.25 20.8727 32.9142 20.8727 32.5H20.3727C20.3727 32.6381 20.2607 32.75 20.1227 32.75V33.25ZM17.4796 32.5C17.4796 32.9142 17.8154 33.25 18.2296 33.25V32.75C18.0915 32.75 17.9796 32.6381 17.9796 32.5H17.4796ZM17.9796 30.2244C17.9796 29.8102 17.6438 29.4744 17.2296 29.4744V29.9744C17.3676 29.9744 17.4796 30.0863 17.4796 30.2244H17.9796ZM10.8145 33.25C11.2287 33.25 11.5645 32.9142 11.5645 32.5H11.0645C11.0645 32.6381 10.9526 32.75 10.8145 32.75V33.25ZM17.4796 3.77559C17.4796 3.91366 17.3676 4.02559 17.2296 4.02559V4.52559C17.6438 4.52559 17.9796 4.1898 17.9796 3.77559H17.4796ZM8.1714 32.5C8.17141 32.9142 8.50719 33.25 8.9214 33.25V32.75C8.78333 32.75 8.6714 32.6381 8.6714 32.5L8.1714 32.5ZM20.8726 30.2244C20.8726 30.0863 20.9846 29.9744 21.1226 29.9744V29.4744C20.7084 29.4744 20.3726 29.8102 20.3726 30.2244L20.8726 30.2244ZM8.67136 30.2244C8.67135 29.8102 8.33557 29.4744 7.92137 29.4744L7.92136 29.9744C8.05943 29.9744 8.17136 30.0863 8.17136 30.2244L8.67136 30.2244ZM11.5645 30.2244C11.5645 30.0863 11.6764 29.9744 11.8145 29.9744V29.4744C11.4003 29.4744 11.0645 29.8102 11.0645 30.2244H11.5645ZM20.3727 3.77558C20.3727 4.1898 20.7084 4.52559 21.1227 4.52558L21.1227 4.02558C20.9846 4.02559 20.8727 3.91366 20.8727 3.77558H20.3727ZM20.1227 1.25C20.2607 1.25 20.3727 1.36193 20.3727 1.5H20.8727C20.8727 1.08579 20.5369 0.75 20.1227 0.75V1.25ZM18.2296 0.75C17.8154 0.75 17.4796 1.08579 17.4796 1.5H17.9796C17.9796 1.36193 18.0915 1.25 18.2296 1.25V0.75ZM11.0645 3.77559C11.0645 4.1898 11.4003 4.52559 11.8145 4.52559V4.02559C11.6764 4.02559 11.5645 3.91366 11.5645 3.77559H11.0645ZM10.8145 1.25C10.9526 1.25 11.0645 1.36193 11.0645 1.5H11.5645C11.5645 1.08579 11.2287 0.75 10.8145 0.75V1.25ZM8.9214 0.75C8.50719 0.75 8.17141 1.08578 8.1714 1.49999L8.6714 1.5C8.6714 1.36193 8.78333 1.25 8.9214 1.25V0.75Z" fill="#C7A033"/>
</svg>
