<svg width="48" height="48" viewBox="0 0 48 48" fill="none" xmlns="http://www.w3.org/2000/svg">
	<path d="M25.4084 8.78049L42.7797 37.6585C43.4057 38.6992 42.6232 40 41.3712 40H6.6288C5.37682 40 4.59433 38.6992 5.22032 37.6585L22.5916 8.78049C23.2175 7.73984 24.7825 7.73984 25.4084 8.78049Z" stroke="white" stroke-width="2"/>
	<path d="M24 38C25.6569 38 27 36.6569 27 35C27 33.3431 25.6569 32 24 32C22.3431 32 21 33.3431 21 35C21 36.6569 22.3431 38 24 38Z" fill="white"/>
	<path d="M22.0052 16.9949L22.8549 28.0712C22.8949 28.5946 23.3626 29 23.926 29H24.074C24.6374 29 25.1051 28.5946 25.1451 28.0712L25.9948 16.9949C26.0775 15.9169 25.1606 15 24 15C22.8394 15 21.9225 15.9169 22.0052 16.9949Z" fill="white" stroke="white"/>
</svg>
