<svg width="20em" height="20em" viewBox="0 0 32 32" fill="none" xmlns="http://www.w3.org/2000/svg">
	<path d="M22.2609 4.17392L12.5217 13.913M12.5217 15.3044L23.6522 4.17392M12.5217 16.6957L25.0435 4.17392M13.2174 17.3913L25.7391 4.86957M26.4348 5.56522L13.913 18.087M27.1304 6.26087L14.6087 18.7826M15.3043 19.4783L27.8261 6.95653M27.8261 8.34783L16.6957 19.4783M27.8261 9.73914L18.087 19.4783M27.8261 11.1304L19.4783 19.4783M27.1304 13.2174L22.2609 18.087M20.8696 4.17392L12.5217 12.5217M18.7826 4.86957L13.913 9.73914" stroke="#464646" stroke-width="0.1" stroke-linecap="round"/>
	<path d="M12.5217 15.3043L16.6957 19.4783M12.5217 13.913L18.087 19.4783M12.5217 12.5217L19.4783 19.4783M13.2174 10.4348L21.5652 18.7826M13.2174 11.8261L20.1739 18.7826M13.913 9.73913L22.2609 18.087M14.6087 9.04348L22.9565 17.3913M15.3043 8.34783L23.6522 16.6957M16 7.65217L24.3478 16M16.6957 6.95652L25.0435 15.3043M17.3913 6.26087L25.7391 14.6087M18.087 5.56522L26.4348 13.913M18.7826 4.86956L27.1304 13.2174M20.1739 4.86956L27.1304 11.8261M20.8696 4.17391L27.8261 11.1304M22.2609 4.17391L27.8261 9.73913M23.6522 4.17391L27.8261 8.34783" stroke="#464646" stroke-width="0.1" stroke-linecap="round"/>
	<path d="M24.6899 16.3421C22.8326 18.1994 20.6387 19.3382 18.6113 19.696C16.5821 20.0541 14.7686 19.6267 13.5709 18.4291C12.3733 17.2314 11.9459 15.4179 12.304 13.3887C12.6618 11.3613 13.8006 9.16742 15.6579 7.31008C17.5152 5.45273 19.7092 4.31394 21.7365 3.95617C23.7658 3.59807 25.5792 4.02546 26.7769 5.22312C27.9745 6.42078 28.4019 8.23424 28.0438 10.2635C27.6861 12.2909 26.5473 14.4848 24.6899 16.3421Z" stroke="#BA0000"/>
	<path d="M12.5217 12.5217C11.8261 17.3913 12.5173 18.4848 11.1304 20.8696" stroke="#BA0000" stroke-linecap="round"/>
	<path d="M19.4783 19.4783C14.6087 20.1739 13.5152 19.4827 11.1304 20.8696" stroke="#BA0000" stroke-linecap="round"/>
	<rect x="11.1304" y="19.4783" width="1.9676" height="9.83801" rx="0.983801" transform="rotate(45 11.1304 19.4783)" fill="#1C1C1C"/>
	<rect x="4.52174" y="25.3913" width="2.9514" height="0.983801" rx="0.4919" transform="rotate(45 4.52174 25.3913)" fill="#1C1C1C"/>
	<path d="M5.43229 4.11775C5.04176 3.72722 4.4086 3.72722 4.01808 4.11775C3.62755 4.50827 3.62755 5.14144 4.01808 5.53196L5.43229 4.11775ZM4.44757 5.40625C4.05705 5.79677 4.05705 6.42994 4.44757 6.82046C4.8381 7.21098 5.47126 7.21098 5.86179 6.82046L4.44757 5.40625ZM6.72079 5.96146C7.11131 5.57094 7.11131 4.93777 6.72079 4.54725C6.33026 4.15672 5.6971 4.15672 5.30657 4.54725L6.72079 5.96146ZM4.01808 5.53196L4.87707 6.39096L6.29129 4.97675L5.43229 4.11775L4.01808 5.53196ZM5.86179 6.82046L6.29129 6.39096L4.87707 4.97675L4.44757 5.40625L5.86179 6.82046ZM6.29129 6.39096L6.72079 5.96146L5.30657 4.54725L4.87707 4.97675L6.29129 6.39096Z" fill="#5A2B00"/>
	<path d="M5.15468 6.11336C8.20899 9.1003 9.93446 10.7621 12.4562 14.2738C10.7382 15.9918 10.7382 17.7098 13.3152 20.2868C14.1742 21.1458 14.1742 21.1458 15.0332 20.2868C16.7512 20.2868 18.4692 22.0048 18.4692 23.7228C17.6102 24.5818 17.6102 24.5818 18.4692 25.4408C21.0462 29.7358 23.6232 30.5948 27.0591 27.1588C30.4952 23.7228 29.6362 21.1458 25.3412 18.5688C24.4822 17.7098 24.4821 17.7098 23.6232 18.5688C21.9052 18.5688 20.1872 16.8508 20.1872 15.1328C21.0462 14.2738 21.0462 14.2738 20.1871 13.4149C17.6102 10.8379 15.8922 10.8378 14.1742 12.5558C10.8087 9.91785 9.05838 8.27569 6.01368 5.25436L5.15468 6.11336Z" fill="#6D3500"/>
	<path d="M4.72518 8.26086C4.6303 8.16597 4.6303 8.01214 4.72518 7.91726L4.81108 7.83136C4.9534 7.68903 5.18416 7.68903 5.32648 7.83136C5.4688 7.97368 5.4688 8.20443 5.32648 8.34676L5.24058 8.43266C5.1457 8.52754 4.99186 8.52754 4.89698 8.43266L4.72518 8.26086Z" fill="#6D3500"/>
	<path d="M8.84839 5.51205C8.94327 5.60693 8.94327 5.76076 8.84839 5.85564L8.76249 5.94155C8.62016 6.08387 8.38941 6.08387 8.24709 5.94154C8.10476 5.79922 8.10476 5.56847 8.24709 5.42615L8.33299 5.34025C8.42787 5.24536 8.5817 5.24536 8.67659 5.34025L8.84839 5.51205Z" fill="#6D3500"/>
	<path d="M5.75598 9.29165C5.66109 9.19677 5.66109 9.04294 5.75598 8.94805L5.84188 8.86215C5.9842 8.71983 6.21495 8.71983 6.35728 8.86215C6.4996 9.00448 6.4996 9.23523 6.35728 9.37755L6.27138 9.46345C6.17649 9.55834 6.02266 9.55834 5.92778 9.46345L5.75598 9.29165Z" fill="#6D3500"/>
	<path d="M9.87918 6.54284C9.97406 6.63772 9.97406 6.79156 9.87918 6.88644L9.79328 6.97234C9.65096 7.11466 9.42021 7.11466 9.27788 6.97234C9.13556 6.83002 9.13556 6.59927 9.27788 6.45694L9.36378 6.37104C9.45866 6.27616 9.6125 6.27616 9.70738 6.37104L9.87918 6.54284Z" fill="#6D3500"/>
	<path d="M12.4562 14.2738L12.7037 14.5213L12.9138 14.3111L12.7405 14.0697L12.4562 14.2738ZM5.15468 6.11336L4.90719 5.86587L4.65693 6.11613L4.90997 6.36359L5.15468 6.11336ZM6.01368 5.25436L6.26021 5.00592L6.01272 4.76034L5.76619 5.00687L6.01368 5.25436ZM14.1742 12.5558L13.9582 12.8313L14.2023 13.0226L14.4217 12.8033L14.1742 12.5558ZM18.4692 25.4408L18.7693 25.2607L18.7471 25.2238L18.7167 25.1933L18.4692 25.4408ZM25.3412 18.5688L25.0937 18.8163L25.1241 18.8468L25.1611 18.869L25.3412 18.5688ZM18.4692 23.7228L18.7167 23.9703L18.8192 23.8678L18.8192 23.7228L18.4692 23.7228ZM15.0332 20.2868L15.0332 19.9368L14.8882 19.9368L14.7857 20.0393L15.0332 20.2868ZM13.3152 20.2868L13.5627 20.0393L13.5627 20.0393L13.3152 20.2868ZM20.1871 13.4149L19.9397 13.6623L19.9397 13.6624L20.1871 13.4149ZM20.1872 15.1328L19.9397 14.8853L19.8372 14.9879L19.8372 15.1328L20.1872 15.1328ZM23.6232 18.5688L23.6232 18.9188L23.7681 18.9188L23.8706 18.8163L23.6232 18.5688ZM4.9931 7.66977C4.85641 7.80646 4.85641 8.02806 4.9931 8.16475C5.12978 8.30143 5.35139 8.30143 5.48807 8.16475L4.9931 7.66977ZM6.77657 6.87625C6.91325 6.73957 6.91325 6.51796 6.77657 6.38127C6.63988 6.24459 6.41828 6.24459 6.28159 6.38127L6.77657 6.87625ZM8.58047 6.10313C8.71715 5.96645 8.71715 5.74484 8.58047 5.60816C8.44379 5.47147 8.22218 5.47147 8.0855 5.60816L8.58047 6.10313ZM6.797 6.89665C6.66031 7.03334 6.66031 7.25494 6.797 7.39163C6.93368 7.52831 7.15529 7.52831 7.29197 7.39163L6.797 6.89665ZM6.02389 8.70057C5.88721 8.83725 5.88721 9.05886 6.02389 9.19554C6.16057 9.33223 6.38218 9.33223 6.51887 9.19554L6.02389 8.70057ZM7.80736 7.90705C7.94405 7.77036 7.94405 7.54875 7.80736 7.41207C7.67068 7.27539 7.44907 7.27539 7.31239 7.41207L7.80736 7.90705ZM9.61127 7.13393C9.74795 6.99724 9.74795 6.77563 9.61127 6.63895C9.47458 6.50227 9.25298 6.50227 9.11629 6.63895L9.61127 7.13393ZM7.82779 7.92745C7.69111 8.06413 7.69111 8.28574 7.82779 8.42242C7.96448 8.55911 8.18609 8.55911 8.32277 8.42242L7.82779 7.92745ZM12.7405 14.0697C10.1995 10.5312 8.45479 8.85114 5.39939 5.86313L4.90997 6.36359C7.96318 9.34946 9.66941 10.993 12.1719 14.478L12.7405 14.0697ZM5.40217 6.36085L6.26116 5.50185L5.76619 5.00687L4.90719 5.86587L5.40217 6.36085ZM5.76714 5.5028C8.81754 8.52977 10.5784 10.182 13.9582 12.8313L14.3901 12.2804C11.039 9.65366 9.29922 8.0216 6.26021 5.00592L5.76714 5.5028ZM18.169 25.6209C19.4654 27.7815 20.8186 29.1835 22.3633 29.54C23.9378 29.9033 25.5598 29.1531 27.3066 27.4063L26.8116 26.9113C25.1225 28.6005 23.738 29.1388 22.5207 28.8579C21.2737 28.5701 20.0499 27.3951 18.7693 25.2607L18.169 25.6209ZM27.3066 27.4063C29.0534 25.6595 29.8037 24.0375 29.4403 22.463C29.0838 20.9183 27.6818 19.5651 25.5212 18.2687L25.1611 18.869C27.2955 20.1496 28.4705 21.3734 28.7582 22.6204C29.0391 23.8376 28.5008 25.2221 26.8116 26.9113L27.3066 27.4063ZM18.7167 25.1933C18.4959 24.9725 18.3516 24.8276 18.2593 24.7121C18.1653 24.5947 18.1749 24.5665 18.1749 24.5818C18.1749 24.5971 18.1653 24.5689 18.2593 24.4515C18.3516 24.3361 18.4959 24.1911 18.7167 23.9703L18.2217 23.4753C18.013 23.684 17.8351 23.8612 17.7127 24.0142C17.5919 24.1652 17.4749 24.3518 17.4749 24.5818C17.4749 24.8119 17.5919 24.9984 17.7127 25.1494C17.8351 25.3025 18.013 25.4796 18.2217 25.6883L18.7167 25.1933ZM18.8192 23.7228C18.8192 22.75 18.3363 21.8065 17.6429 21.1131C16.9495 20.4197 16.006 19.9368 15.0332 19.9368L15.0332 20.6368C15.7783 20.6368 16.5528 21.0129 17.1479 21.6081C17.7431 22.2032 18.1192 22.9777 18.1192 23.7228L18.8192 23.7228ZM14.7857 20.0393C14.5649 20.2601 14.4199 20.4044 14.3045 20.4967C14.1871 20.5907 14.1589 20.5811 14.1742 20.5811C14.1895 20.5811 14.1613 20.5907 14.0438 20.4967C13.9284 20.4044 13.7835 20.2601 13.5627 20.0393L13.0677 20.5343C13.2764 20.743 13.4535 20.9209 13.6066 21.0433C13.7576 21.1641 13.9441 21.2811 14.1742 21.2811C14.4042 21.2811 14.5908 21.1641 14.7418 21.0433C14.8948 20.9209 15.072 20.743 15.2807 20.5343L14.7857 20.0393ZM19.9397 13.6624C20.1605 13.8831 20.3047 14.0281 20.397 14.1435C20.491 14.261 20.4814 14.2891 20.4814 14.2738C20.4814 14.2585 20.491 14.2867 20.397 14.4042C20.3047 14.5196 20.1605 14.6645 19.9397 14.8853L20.4347 15.3803C20.6434 15.1716 20.8212 14.9945 20.9437 14.8414C21.0645 14.6904 21.1814 14.5039 21.1814 14.2738C21.1814 14.0438 21.0644 13.8572 20.9436 13.7062C20.8212 13.5532 20.6433 13.3761 20.4346 13.1674L19.9397 13.6624ZM19.8372 15.1328C19.8372 16.1057 20.32 17.0492 21.0134 17.7426C21.7068 18.4359 22.6503 18.9188 23.6232 18.9188L23.6232 18.2188C22.878 18.2188 22.1035 17.8427 21.5084 17.2476C20.9133 16.6525 20.5372 15.878 20.5372 15.1328L19.8372 15.1328ZM23.8706 18.8163C24.0914 18.5955 24.2364 18.4513 24.3518 18.359C24.4693 18.265 24.4974 18.2746 24.4822 18.2746C24.4669 18.2746 24.495 18.265 24.6125 18.359C24.7279 18.4513 24.8729 18.5955 25.0937 18.8163L25.5886 18.3213C25.3799 18.1126 25.2028 17.9348 25.0498 17.8123C24.8988 17.6915 24.7122 17.5746 24.4822 17.5746C24.2521 17.5746 24.0655 17.6915 23.9145 17.8123C23.7615 17.9348 23.5844 18.1126 23.3757 18.3213L23.8706 18.8163ZM13.5627 20.0393C12.2907 18.7674 11.7169 17.765 11.6229 16.9196C11.5319 16.1005 11.8842 15.3408 12.7037 14.5213L12.2087 14.0264C11.3102 14.9249 10.8034 15.8832 10.9272 16.9969C11.048 18.0841 11.7627 19.2293 13.0677 20.5343L13.5627 20.0393ZM20.4346 13.1674C19.1296 11.8624 17.9845 11.1477 16.8972 11.0269C15.7835 10.9031 14.8252 11.4098 13.9267 12.3084L14.4217 12.8033C15.2411 11.9838 16.0008 11.6316 16.8199 11.7226C17.6654 11.8165 18.6677 12.3904 19.9397 13.6623L20.4346 13.1674ZM5.48807 8.16475L6.77657 6.87625L6.28159 6.38127L4.9931 7.66977L5.48807 8.16475ZM4.97267 8.16475L5.05857 8.07885L4.56359 7.58387L4.47769 7.66977L4.97267 8.16475ZM5.07899 8.09927L4.99309 8.18517L5.48807 8.68014L5.57397 8.59424L5.07899 8.09927ZM5.14447 8.18517L4.97267 8.01337L4.47769 8.50834L4.64949 8.68014L5.14447 8.18517ZM4.99309 8.18517C5.03489 8.14337 5.10267 8.14337 5.14447 8.18517L4.64949 8.68014C4.88106 8.91171 5.2565 8.91171 5.48807 8.68014L4.99309 8.18517ZM5.07899 8.07885C5.08463 8.08449 5.08463 8.09363 5.07899 8.09927L5.57397 8.59424C5.85297 8.31524 5.85297 7.86288 5.57397 7.58387L5.07899 8.07885ZM5.05857 8.07885C5.06421 8.07321 5.07335 8.07321 5.07899 8.07885L5.57397 7.58387C5.29496 7.30486 4.8426 7.30486 4.56359 7.58387L5.05857 8.07885ZM4.47769 7.66977C4.24613 7.90134 4.24613 8.27678 4.47769 8.50834L4.97267 8.01337C5.01447 8.05517 5.01447 8.12294 4.97267 8.16475L4.47769 7.66977ZM8.0855 5.60816L6.797 6.89665L7.29197 7.39163L8.58047 6.10313L8.0855 5.60816ZM8.6009 5.60816L8.515 5.69406L9.00997 6.18903L9.09587 6.10313L8.6009 5.60816ZM8.49457 5.67363L8.58047 5.58773L8.0855 5.09276L7.9996 5.17866L8.49457 5.67363ZM8.4291 5.58773L8.6009 5.75953L9.09587 5.26456L8.92407 5.09276L8.4291 5.58773ZM8.58047 5.58773C8.53867 5.62953 8.4709 5.62953 8.4291 5.58773L8.92407 5.09276C8.69251 4.86119 8.31707 4.86119 8.0855 5.09276L8.58047 5.58773ZM8.49457 5.69406C8.48893 5.68842 8.48893 5.67927 8.49457 5.67363L7.9996 5.17866C7.72059 5.45767 7.72059 5.91003 7.9996 6.18903L8.49457 5.69406ZM8.515 5.69406C8.50936 5.6997 8.50021 5.6997 8.49457 5.69406L7.9996 6.18903C8.27861 6.46804 8.73097 6.46804 9.00997 6.18903L8.515 5.69406ZM9.09587 6.10313C9.32744 5.87157 9.32744 5.49612 9.09587 5.26456L8.6009 5.75953C8.5591 5.71773 8.5591 5.64996 8.6009 5.60816L9.09587 6.10313ZM6.51887 9.19554L7.80736 7.90705L7.31239 7.41207L6.02389 8.70057L6.51887 9.19554ZM6.00346 9.19554L6.08936 9.10964L5.59439 8.61467L5.50849 8.70057L6.00346 9.19554ZM6.10979 9.13007L6.02389 9.21597L6.51886 9.71094L6.60476 9.62504L6.10979 9.13007ZM6.17526 9.21597L6.00346 9.04417L5.50849 9.53914L5.68029 9.71094L6.17526 9.21597ZM6.02389 9.21597C6.06569 9.17416 6.13346 9.17416 6.17526 9.21597L5.68029 9.71094C5.91186 9.94251 6.2873 9.94251 6.51886 9.71094L6.02389 9.21597ZM6.10979 9.10964C6.11543 9.11528 6.11543 9.12443 6.10979 9.13007L6.60476 9.62504C6.88377 9.34603 6.88377 8.89367 6.60476 8.61467L6.10979 9.10964ZM6.08936 9.10964C6.095 9.104 6.10415 9.104 6.10979 9.10964L6.60476 8.61467C6.32576 8.33566 5.8734 8.33566 5.59439 8.61467L6.08936 9.10964ZM5.50849 8.70057C5.27692 8.93213 5.27692 9.30757 5.50849 9.53914L6.00346 9.04417C6.04527 9.08597 6.04527 9.15374 6.00346 9.19554L5.50849 8.70057ZM9.11629 6.63895L7.82779 7.92745L8.32277 8.42242L9.61127 7.13393L9.11629 6.63895ZM9.63169 6.63895L9.54579 6.72485L10.0408 7.21983L10.1267 7.13393L9.63169 6.63895ZM9.52537 6.70443L9.61127 6.61853L9.1163 6.12355L9.03039 6.20945L9.52537 6.70443ZM9.45989 6.61853L9.63169 6.79033L10.1267 6.29535L9.95487 6.12355L9.45989 6.61853ZM9.61127 6.61853C9.56947 6.66033 9.5017 6.66033 9.45989 6.61853L9.95487 6.12355C9.7233 5.89199 9.34786 5.89199 9.1163 6.12355L9.61127 6.61853ZM9.52537 6.72485C9.51973 6.71921 9.51973 6.71007 9.52537 6.70443L9.03039 6.20945C8.75139 6.48846 8.75139 6.94082 9.0304 7.21983L9.52537 6.72485ZM9.54579 6.72485C9.54015 6.73049 9.53101 6.73049 9.52537 6.72485L9.0304 7.21983C9.3094 7.49884 9.76176 7.49884 10.0408 7.21983L9.54579 6.72485ZM10.1267 7.13393C10.3582 6.90236 10.3582 6.52692 10.1267 6.29535L9.63169 6.79033C9.58989 6.74853 9.58989 6.68075 9.63169 6.63895L10.1267 7.13393Z" fill="#5A2B00"/>
	<path d="M27.0591 27.1588C25.3411 28.8768 22.7642 29.7358 21.9051 28.8768C23.6232 25.4408 26.0721 25.3878 27.0591 27.1588Z" fill="#232323"/>
	<path d="M23.6232 25.4408L25.3411 23.7228M27.0591 27.1588C25.3411 28.8768 22.7642 29.7358 21.9051 28.8768C23.6231 25.4408 26.0721 25.3878 27.0591 27.1588Z" stroke="#111111" stroke-width="0.6" stroke-linecap="round"/>
	<path d="M9.02017 9.11985L9.36088 8.7539C9.16385 8.57047 8.85697 8.57595 8.66662 8.7663C8.47626 8.95665 8.47079 9.26354 8.65422 9.46056L9.02017 9.11985ZM20.6167 21.5753L20.2507 21.916C20.3432 22.0154 20.472 22.0728 20.6077 22.0753C20.7434 22.0777 20.8742 22.0248 20.9702 21.9289L20.6167 21.5753ZM21.4757 20.7163L21.8292 21.0699C21.9252 20.9739 21.978 20.8431 21.9756 20.7074C21.9731 20.5717 21.9157 20.4429 21.8164 20.3504L21.4757 20.7163ZM8.65422 9.46056L20.2507 21.916L20.9826 21.2346L9.38612 8.77914L8.65422 9.46056ZM20.9702 21.9289L21.8292 21.0699L21.1221 20.3628L20.2631 21.2218L20.9702 21.9289ZM21.8164 20.3504L9.36088 8.7539L8.67946 9.4858L21.1349 21.0823L21.8164 20.3504Z" fill="#111111"/>
	<path d="M21.9052 23.7228L23.6232 22.0048" stroke="#AB6700" stroke-width="0.3" stroke-linecap="round"/>
	<path d="M24.6159 25.231L8.76247 9.37756M24.7877 25.0592L8.93427 9.20576M24.9595 24.8874L9.10608 9.03395M25.1313 24.7156L9.27787 8.86215" stroke="#464646" stroke-width="0.15" stroke-linecap="round"/>
</svg>
