<svg viewBox="0 0 33 26" fill="none" xmlns="http://www.w3.org/2000/svg">
<path d="M18.2741 22.6083C14.3293 25.662 12.1544 26.2631 6.5 25L16.482 21.5001C18.7259 19.8765 21.3907 18.397 22.871 18.4709C23.6502 18.3231 24.2869 18.925 23.4944 19.5052C21.1737 20.5731 20.3265 21.0046 18.2741 22.6083Z" fill="#BB1D23" stroke="#9A161B" stroke-width="0.5"/>
<path d="M6.11931 20.6874C4.48309 18.1753 2.76896 19.1358 2.61313 21.1307C3.20977 24.2685 6.13016 26.1562 10.0478 24.4818C10.8679 24.1313 11.735 23.8718 12.6267 23.8516C15.8959 23.7776 16.0575 23.3407 16.4041 21.5001L18.5333 20.1299C21.1333 18.7952 20.9232 18.5983 20.9232 15.9588C19.9382 16.255 19.3307 16.5292 18.5942 17.0609C18.3249 17.2552 18.0902 17.4923 17.8664 17.7376C14.3426 21.6007 8.91345 23.1221 6.11931 20.6874Z" fill="#951C1B" stroke="#801716" stroke-width="0.5"/>
<path d="M11.7292 18.9142C11.1838 19.9485 8.57887 21.5138 7.95555 21.6615C11.9292 22.9914 14.8458 20.6135 17.9624 17.8059C20.0777 16.0828 21.3575 15.5593 24.4741 14.9988C24.7544 14.9484 25.0515 14.9529 25.3151 14.8452C26.3851 14.408 26.368 12.3053 25.5201 12.1908C24.5736 12.0629 22.8667 12.7344 22.0919 12.1908C21.2667 11.4653 21.3067 10.9133 22.0919 9.97427C17.4951 10.573 16.1524 11.5568 15.7029 14.3334C14.9237 17.0671 14.5341 18.5448 11.7292 18.9142Z" fill="#AF2228" stroke="#8E161B" stroke-width="0.5"/>
<path d="M12.5083 8.64437C12.6642 13.6684 12.4843 16.5155 11.7111 18.9046C13.9111 19.3203 15.1558 17.4823 15.8587 13.964C16.6454 11.2284 17.7644 10.536 21.7802 10.122C23.6214 9.48253 24.8184 9.15025 26.6889 9.08767C27.871 8.80058 28.202 8.19053 28.403 6.57563C29.4618 6.32989 29.8166 6.05845 30.3509 5.76291C32.2209 4.72854 30.5067 3.17699 28.9484 3.69417C23.7281 5.31961 18.5078 7.53611 15.3133 7.53611C16.1956 5.58719 15.7808 4.72854 14.4562 5.02408C13.4433 5.02408 10.7163 7.09282 9.62549 6.57563C10.3267 5.24573 9.39175 4.87631 8.53468 5.24573C6.56707 6.45663 5.44088 7.05344 3.39229 7.97942C6.13103 7.42771 7.60459 7.31601 10.1709 7.31446C11.9629 7.31338 12.3487 7.37895 12.5083 8.64437Z" fill="url(#paint0_linear_6_3)" stroke="url(#paint1_linear_6_3)" stroke-width="0.5"/>
<path d="M3.54809 3.47253C1.05483 5.17185 -0.581385 8.20107 3.39226 7.97942C4.53333 7.91577 8.53333 5.05755 9.00217 5.09796C9.85923 5.17184 10.1344 5.85539 9.51111 6.52034C10.2903 7.03753 11.7084 6.36304 13.0537 5.54126C15.547 4.58078 16.1704 5.02408 15.2354 7.53612C16.726 7.58274 17.601 7.52411 18.9753 7.09282C21.3713 6.52999 22.5594 5.91068 24.2735 5.24573C22.441 5.32223 22.0486 4.45512 23.2606 3.10311C24.3514 1.84709 24.0398 1.18214 22.3256 1.47767C19.4945 2.79289 17.89 3.14429 15.0016 3.17699C9.08008 2.73369 6.27098 2.39483 3.54809 3.47253Z" fill="#B41F25" stroke="#97171B" stroke-width="0.5"/>
<path d="M8.69051 1.99485C6.27941 2.16407 4.82223 2.38496 3.70395 3.32476C5.57778 2.95385 6.25544 2.7525 7.67762 2.73369C11.885 2.80757 14.0076 3.55143 17.6445 2.99761C17.5292 2.56763 17.575 2.28255 17.8066 1.84709C18.0946 0.90769 17.7287 0.295534 16.8716 0.664952C15.7808 1.3299 15.4212 1.61786 13.755 1.92097C11.8364 2.00298 10.7119 2.00514 8.69051 1.99485Z" fill="#801819" stroke="#631011" stroke-width="0.5"/>
<mask id="path-7-inside-1_6_3" fill="white">
<path d="M20.3778 0.738835C20.3778 1.14688 20.0289 1.47767 19.5986 1.47767C19.1683 1.47767 18.8195 1.14688 18.8195 0.738835C18.8195 0.330788 19.1683 0 19.5986 0C20.0289 0 20.3778 0.330788 20.3778 0.738835Z"/>
<path d="M33 5.98456C33 6.2702 32.7558 6.50175 32.4546 6.50175C32.1534 6.50175 31.9092 6.2702 31.9092 5.98456C31.9092 5.69893 32.1534 5.46738 32.4546 5.46738C32.7558 5.46738 33 5.69893 33 5.98456Z"/>
<path d="M25.5202 17.5843C25.5202 17.9107 25.2411 18.1753 24.8968 18.1753C24.5526 18.1753 24.2735 17.9107 24.2735 17.5843C24.2735 17.2578 24.5526 16.9932 24.8968 16.9932C25.2411 16.9932 25.5202 17.2578 25.5202 17.5843Z"/>
<path d="M28.1693 1.84709C28.1693 2.45916 27.646 2.95534 27.0005 2.95534C26.3551 2.95534 25.8318 2.45916 25.8318 1.84709C25.8318 1.23502 26.3551 0.738835 27.0005 0.738835C27.646 0.738835 28.1693 1.23502 28.1693 1.84709Z"/>
<path d="M29.5717 11.7475C29.5717 12.3595 29.0485 12.8557 28.403 12.8557C27.7575 12.8557 27.2343 12.3595 27.2343 11.7475C27.2343 11.1354 27.7575 10.6392 28.403 10.6392C29.0485 10.6392 29.5717 11.1354 29.5717 11.7475Z"/>
</mask>
<path d="M20.3778 0.738835C20.3778 1.14688 20.0289 1.47767 19.5986 1.47767C19.1683 1.47767 18.8195 1.14688 18.8195 0.738835C18.8195 0.330788 19.1683 0 19.5986 0C20.0289 0 20.3778 0.330788 20.3778 0.738835Z" fill="#9E1B27"/>
<path d="M33 5.98456C33 6.2702 32.7558 6.50175 32.4546 6.50175C32.1534 6.50175 31.9092 6.2702 31.9092 5.98456C31.9092 5.69893 32.1534 5.46738 32.4546 5.46738C32.7558 5.46738 33 5.69893 33 5.98456Z" fill="#9E1B27"/>
<path d="M25.5202 17.5843C25.5202 17.9107 25.2411 18.1753 24.8968 18.1753C24.5526 18.1753 24.2735 17.9107 24.2735 17.5843C24.2735 17.2578 24.5526 16.9932 24.8968 16.9932C25.2411 16.9932 25.5202 17.2578 25.5202 17.5843Z" fill="#9E1B27"/>
<path d="M28.1693 1.84709C28.1693 2.45916 27.646 2.95534 27.0005 2.95534C26.3551 2.95534 25.8318 2.45916 25.8318 1.84709C25.8318 1.23502 26.3551 0.738835 27.0005 0.738835C27.646 0.738835 28.1693 1.23502 28.1693 1.84709Z" fill="#9E1B27"/>
<path d="M29.5717 11.7475C29.5717 12.3595 29.0485 12.8557 28.403 12.8557C27.7575 12.8557 27.2343 12.3595 27.2343 11.7475C27.2343 11.1354 27.7575 10.6392 28.403 10.6392C29.0485 10.6392 29.5717 11.1354 29.5717 11.7475Z" fill="#9E1B27"/>
<path d="M19.8778 0.738835C19.8778 0.846041 19.7781 0.97767 19.5986 0.97767V1.97767C20.2797 1.97767 20.8778 1.44772 20.8778 0.738835H19.8778ZM19.5986 0.97767C19.4191 0.97767 19.3195 0.846041 19.3195 0.738835H18.3195C18.3195 1.44772 18.9175 1.97767 19.5986 1.97767V0.97767ZM19.3195 0.738835C19.3195 0.631629 19.4191 0.5 19.5986 0.5V-0.5C18.9175 -0.5 18.3195 0.0299466 18.3195 0.738835H19.3195ZM19.5986 0.5C19.7781 0.5 19.8778 0.631629 19.8778 0.738835H20.8778C20.8778 0.0299466 20.2797 -0.5 19.5986 -0.5V0.5ZM32.5 5.98456C32.5 5.98459 32.5 5.98446 32.5 5.9842C32.5001 5.98394 32.5001 5.98364 32.5002 5.98332C32.5003 5.98265 32.5005 5.98224 32.5005 5.98219C32.5005 5.98213 32.4996 5.98425 32.4962 5.98745C32.4894 5.99396 32.4757 6.00175 32.4546 6.00175V7.00175C33.0066 7.00175 33.5 6.57104 33.5 5.98456H32.5ZM32.4546 6.00175C32.4334 6.00175 32.4198 5.99396 32.413 5.98745C32.4096 5.98425 32.4087 5.98213 32.4087 5.98219C32.4087 5.98224 32.4089 5.98265 32.409 5.98332C32.4091 5.98364 32.4091 5.98394 32.4092 5.9842C32.4092 5.98446 32.4092 5.98459 32.4092 5.98456H31.4092C31.4092 6.57104 31.9026 7.00175 32.4546 7.00175V6.00175ZM32.4092 5.98456C32.4092 5.98454 32.4092 5.98467 32.4092 5.98493C32.4091 5.98518 32.4091 5.98548 32.409 5.9858C32.4089 5.98648 32.4087 5.98688 32.4087 5.98693C32.4087 5.98699 32.4096 5.98487 32.413 5.98167C32.4198 5.97517 32.4334 5.96738 32.4546 5.96738V4.96738C31.9026 4.96738 31.4092 5.39809 31.4092 5.98456H32.4092ZM32.4546 5.96738C32.4757 5.96738 32.4894 5.97517 32.4962 5.98167C32.4996 5.98487 32.5005 5.98699 32.5005 5.98693C32.5005 5.98688 32.5003 5.98648 32.5002 5.9858C32.5001 5.98548 32.5001 5.98518 32.5 5.98493C32.5 5.98467 32.5 5.98454 32.5 5.98456H33.5C33.5 5.39809 33.0066 4.96738 32.4546 4.96738V5.96738ZM25.0202 17.5843C25.0202 17.6006 25.014 17.62 24.9935 17.6394C24.9726 17.6593 24.9395 17.6753 24.8968 17.6753V18.6753C25.4919 18.6753 26.0202 18.2115 26.0202 17.5843H25.0202ZM24.8968 17.6753C24.8542 17.6753 24.8211 17.6593 24.8001 17.6394C24.7796 17.62 24.7735 17.6006 24.7735 17.5843H23.7735C23.7735 18.2115 24.3018 18.6753 24.8968 18.6753V17.6753ZM24.7735 17.5843C24.7735 17.568 24.7796 17.5486 24.8001 17.5291C24.8211 17.5093 24.8542 17.4932 24.8968 17.4932V16.4932C24.3018 16.4932 23.7735 16.957 23.7735 17.5843H24.7735ZM24.8968 17.4932C24.9395 17.4932 24.9726 17.5093 24.9935 17.5291C25.014 17.5486 25.0202 17.568 25.0202 17.5843H26.0202C26.0202 16.957 25.4919 16.4932 24.8968 16.4932V17.4932ZM27.6693 1.84709C27.6693 2.15832 27.3952 2.45534 27.0005 2.45534V3.45534C27.8968 3.45534 28.6693 2.76 28.6693 1.84709H27.6693ZM27.0005 2.45534C26.6058 2.45534 26.3318 2.15832 26.3318 1.84709H25.3318C25.3318 2.76 26.1043 3.45534 27.0005 3.45534V2.45534ZM26.3318 1.84709C26.3318 1.53586 26.6058 1.23883 27.0005 1.23883V0.238835C26.1043 0.238835 25.3318 0.934175 25.3318 1.84709H26.3318ZM27.0005 1.23883C27.3952 1.23883 27.6693 1.53586 27.6693 1.84709H28.6693C28.6693 0.934175 27.8968 0.238835 27.0005 0.238835V1.23883ZM29.0717 11.7475C29.0717 12.0587 28.7977 12.3557 28.403 12.3557V13.3557C29.2993 13.3557 30.0717 12.6604 30.0717 11.7475H29.0717ZM28.403 12.3557C28.0083 12.3557 27.7343 12.0587 27.7343 11.7475H26.7343C26.7343 12.6604 27.5068 13.3557 28.403 13.3557V12.3557ZM27.7343 11.7475C27.7343 11.4362 28.0083 11.1392 28.403 11.1392V10.1392C27.5068 10.1392 26.7343 10.8346 26.7343 11.7475H27.7343ZM28.403 11.1392C28.7977 11.1392 29.0717 11.4362 29.0717 11.7475H30.0717C30.0717 10.8346 29.2993 10.1392 28.403 10.1392V11.1392Z" fill="#88141E" mask="url(#path-7-inside-1_6_3)"/>
<defs>
<linearGradient id="paint0_linear_6_3" x1="3.39229" y1="11.2303" x2="31.13" y2="11.2303" gradientUnits="userSpaceOnUse">
<stop stop-color="#DA2B2B"/>
<stop offset="1" stop-color="#AB181E"/>
</linearGradient>
<linearGradient id="paint1_linear_6_3" x1="3.39229" y1="11.2303" x2="31.13" y2="11.2303" gradientUnits="userSpaceOnUse">
<stop stop-color="#9B3A3A"/>
<stop offset="1" stop-color="#98171D"/>
</linearGradient>
</defs>
</svg>
