<svg width="20em" height="20em" viewBox="0 0 32 32" fill="none" xmlns="http://www.w3.org/2000/svg">
	<path d="M22.3096 20.7926C22.3107 20.9802 22.2571 21.1639 22.1557 21.3204C22.0542 21.4769 21.9094 21.5992 21.7397 21.6717C21.5699 21.7442 21.3828 21.7637 21.2022 21.7278C21.0215 21.6918 20.8554 21.6019 20.725 21.4696C20.5945 21.3373 20.5055 21.1684 20.4694 20.9845C20.4332 20.8006 20.4515 20.6099 20.5219 20.4365C20.5922 20.2632 20.7116 20.1151 20.8647 20.011C21.0178 19.9068 21.1978 19.8514 21.3819 19.8517C21.6272 19.8517 21.8625 19.9507 22.0363 20.127C22.2102 20.3034 22.3084 20.5427 22.3096 20.7926ZM18 18.3565C17.8166 18.3568 17.6374 18.4125 17.485 18.5165C17.3326 18.6206 17.2139 18.7683 17.1439 18.9411C17.074 19.1139 17.0558 19.3039 17.0917 19.4872C17.1277 19.6705 17.2162 19.8388 17.346 19.9708C17.4758 20.1029 17.6411 20.1928 17.821 20.2291C18.0009 20.2655 18.1874 20.2467 18.3568 20.1751C18.5262 20.1035 18.671 19.9823 18.7729 19.8269C18.8748 19.6715 18.9291 19.4887 18.9291 19.3018C18.9291 19.1776 18.9051 19.0545 18.8584 18.9397C18.8117 18.8249 18.7432 18.7207 18.6569 18.6329C18.5706 18.5451 18.4682 18.4754 18.3555 18.428C18.2427 18.3806 18.1219 18.3563 18 18.3565ZM14.6095 19.8517C14.4261 19.852 14.2468 19.9077 14.0945 20.0117C13.9421 20.1158 13.8234 20.2635 13.7534 20.4363C13.6834 20.6091 13.6653 20.7991 13.7012 20.9824C13.7372 21.1657 13.8257 21.334 13.9554 21.466C14.0853 21.5981 14.2506 21.688 14.4305 21.7243C14.6104 21.7607 14.7968 21.7419 14.9663 21.6703C15.1357 21.5987 15.2805 21.4775 15.3824 21.3221C15.4843 21.1667 15.5386 20.984 15.5386 20.797C15.5386 20.6728 15.5146 20.5497 15.4679 20.4349C15.4212 20.3202 15.3527 20.2159 15.2664 20.1281C15.1801 20.0403 15.0777 19.9707 14.9649 19.9232C14.8522 19.8758 14.7314 19.8515 14.6095 19.8517ZM13.2879 23.2846C13.104 23.2844 12.9242 23.3397 12.7712 23.4436C12.6181 23.5475 12.4988 23.6954 12.4283 23.8685C12.3578 24.0415 12.3393 24.232 12.3751 24.4158C12.4109 24.5996 12.4994 24.7685 12.6295 24.901C12.7595 25.0335 12.9252 25.1237 13.1056 25.1602C13.2859 25.1966 13.4729 25.1778 13.6427 25.1059C13.8125 25.0341 13.9576 24.9125 14.0596 24.7566C14.1616 24.6006 14.2159 24.4174 14.2156 24.23C14.2156 23.9793 14.1179 23.7388 13.9439 23.5615C13.7699 23.3842 13.5339 23.2846 13.2879 23.2846ZM9.67809 21.4689C9.57679 21.4534 9.47352 21.4784 9.38988 21.5387C9.30625 21.5989 9.24874 21.6899 9.22939 21.7924C8.92354 23.404 8.92354 25.0604 9.22939 26.672C9.24874 26.7745 9.30625 26.8655 9.38988 26.9257C9.47352 26.986 9.57679 27.011 9.67809 26.9955C10.9275 26.7999 11.5075 25.637 11.5075 24.2315C11.5075 22.8259 10.9275 21.6615 9.67809 21.4689ZM25.8703 20.1457C25.9527 20.0839 26.0084 19.992 26.026 19.8893C26.0434 19.7865 26.0212 19.6809 25.9641 19.5944C25.0619 18.2336 23.9119 17.0617 22.5765 16.1423C22.4914 16.084 22.3875 16.0614 22.2864 16.0792C22.1853 16.097 22.0949 16.1539 22.034 16.2379C21.2866 17.2759 21.6834 18.5167 22.6587 19.5106C23.634 20.5045 24.8517 20.9088 25.8703 20.1457ZM13.9833 16.1967C13.9229 16.1125 13.8327 16.0554 13.7317 16.0376C13.6308 16.0198 13.527 16.0426 13.4423 16.1012C12.1065 17.0219 10.9564 18.1952 10.0547 19.5577C9.99863 19.6445 9.9777 19.75 9.99625 19.8522C10.0148 19.9544 10.0714 20.0454 10.1542 20.106C11.1728 20.8691 12.3905 20.4633 13.3658 19.4694C14.3411 18.4756 14.7321 17.2347 13.9833 16.1967ZM24.491 24.23C24.491 25.637 25.0681 26.7999 26.3205 26.9955C26.4219 27.0111 26.5253 26.9861 26.6093 26.9258C26.6931 26.8656 26.751 26.7747 26.7706 26.672C27.0765 25.0604 27.0765 23.404 26.7706 21.7924C26.751 21.6897 26.6931 21.5988 26.6093 21.5386C26.5253 21.4783 26.4219 21.4533 26.3205 21.4689C25.0725 21.6601 24.491 22.823 24.491 24.23ZM18.0087 17.5552C19.3879 17.5552 20.5306 16.9671 20.7211 15.691C20.7364 15.588 20.712 15.4829 20.6532 15.3977C20.5943 15.3125 20.5054 15.2538 20.4051 15.2338C18.8236 14.9221 17.1981 14.9221 15.6165 15.2338C15.5159 15.2535 15.4267 15.3121 15.3676 15.3973C15.3084 15.4825 15.2839 15.5878 15.2991 15.691C15.4925 16.9642 16.6279 17.5552 18.0087 17.5552ZM23.2661 23.9021L18.2337 22.8862C18.215 22.884 18.1962 22.884 18.1775 22.8862H18.1688C18.1144 22.8778 18.0594 22.8739 18.0043 22.8745C17.819 22.8691 17.6347 22.9031 17.463 22.9742C17.2913 23.0453 17.1359 23.152 17.0068 23.2875C16.8777 23.423 16.7777 23.5844 16.713 23.7614C16.6483 23.9384 16.6205 24.1272 16.6312 24.3158C16.642 24.5043 16.6911 24.6885 16.7754 24.8567C16.8597 25.025 16.9774 25.1735 17.121 25.2929C17.2646 25.4123 17.431 25.4999 17.6097 25.5503C17.7883 25.6007 17.9753 25.6127 18.1587 25.5855C18.1836 25.589 18.2088 25.589 18.2337 25.5855L23.2647 24.5711C23.3434 24.5593 23.4153 24.5192 23.4674 24.4579C23.5195 24.3966 23.5483 24.3183 23.5485 24.2372C23.5486 24.1562 23.5202 24.0777 23.4684 24.0162C23.4166 23.9547 23.3447 23.9142 23.2661 23.9021Z" fill="#D13D26" stroke="#231F20" stroke-width="0.2" stroke-miterlimit="10"/>
	<path d="M7.65025 6H6.40933C6.29887 6 6.20933 6.08954 6.20933 6.2L6.2093 7.65788C6.2093 7.76833 6.11975 7.85787 6.0093 7.85787L4.56839 7.85786C2.42808 7.85771 2.00001 8.28659 2 10.2874V19.8626C1.99994 21.8634 2.42808 22.2921 4.4257 22.2921L6.0093 22.2921C6.11976 22.2921 6.2093 22.3817 6.2093 22.4921L6.20933 23.95C6.20933 24.0605 6.29887 24.15 6.40933 24.15H7.65025C7.7607 24.15 7.85025 24.0605 7.85025 23.95V22.4921C7.85025 22.3816 7.93979 22.2921 8.05025 22.2921L11.2888 22.2921C11.3993 22.2921 11.4888 22.3817 11.4888 22.4921V23.95C11.4888 24.0605 11.5783 24.15 11.6888 24.15H12.9297C13.0402 24.15 13.1297 24.0605 13.1297 23.95L13.1297 22.4921C13.1297 22.3816 13.2193 22.2921 13.3297 22.2921H14.6993C16.6969 22.2921 17.125 21.8634 17.125 19.8626V18.7764C17.125 18.6659 17.0355 18.5764 16.925 18.5764H13.3297C13.2193 18.5764 13.1297 18.6659 13.1297 18.7764V19.5197C13.1297 19.6301 13.0402 19.7197 12.9297 19.7197H6.4093C6.29884 19.7197 6.2093 19.6301 6.2093 19.5197V10.6303C6.2093 10.5198 6.29884 10.4303 6.4093 10.4303H12.9297C13.0402 10.4303 13.1297 10.5198 13.1297 10.6303V11.3736C13.1297 11.4841 13.2193 11.5736 13.3297 11.5736H16.925C17.0355 11.5736 17.125 11.4841 17.125 11.3736V10.2874C17.125 8.28661 16.6969 7.85786 14.6993 7.85786L13.3297 7.85787C13.2193 7.85787 13.1297 7.76833 13.1297 7.65787V6.2C13.1297 6.08954 13.0402 6 12.9297 6H11.6888C11.5783 6 11.4888 6.08954 11.4888 6.2V7.65787C11.4888 7.76833 11.3993 7.85787 11.2888 7.85787H8.05025C7.93979 7.85787 7.85025 7.76833 7.85025 7.65787V6.2C7.85025 6.08954 7.7607 6 7.65025 6Z" fill="#F8C73D"/>
	<path d="M6.2093 22.4921L6.1093 22.4921L6.1093 22.4921L6.2093 22.4921ZM6.20933 23.95L6.30933 23.95L6.30933 23.95L6.20933 23.95ZM2 19.8626L2.1 19.8626V19.8626H2ZM2 10.2874L1.9 10.2874V10.2874H2ZM4.56839 7.85786L4.56839 7.95786L4.56839 7.95786L4.56839 7.85786ZM4.4257 22.2921L4.42571 22.1921H4.4257V22.2921ZM14.6993 7.85786L14.6993 7.75786L14.6993 7.75786L14.6993 7.85786ZM6.0093 22.2921L6.0093 22.1921L6.0093 22.1921L6.0093 22.2921ZM8.05025 22.2921L8.05025 22.3921L8.05025 22.3921L8.05025 22.2921ZM11.2888 22.2921L11.2888 22.1921L11.2888 22.1921L11.2888 22.2921ZM13.1297 23.95L13.2297 23.95L13.2297 23.95L13.1297 23.95ZM13.1297 22.4921L13.0297 22.4921L13.0297 22.4921L13.1297 22.4921ZM13.3297 7.85787L13.3297 7.95787L13.3297 7.95787L13.3297 7.85787ZM6.20933 6.2L6.30933 6.2L6.30933 6.2L6.20933 6.2ZM6.2093 7.65788L6.1093 7.65787L6.1093 7.65787L6.2093 7.65788ZM6.0093 7.85787L6.0093 7.75787L6.0093 7.75787L6.0093 7.85787ZM6.40933 6.1H7.65025V5.9H6.40933V6.1ZM7.75025 6.2V7.65787H7.95025V6.2H7.75025ZM11.6888 6.1H12.9297V5.9H11.6888V6.1ZM13.0297 6.2V7.65787H13.2297V6.2H13.0297ZM6.1093 22.4921L6.10933 23.95L6.30933 23.95L6.3093 22.4921L6.1093 22.4921ZM6.40933 24.25H7.65025V24.05H6.40933V24.25ZM11.3888 22.4921V23.95H11.5888V22.4921H11.3888ZM11.6888 24.25H12.9297V24.05H11.6888V24.25ZM16.925 11.4736H13.3297V11.6736H16.925V11.4736ZM13.2297 11.3736V10.6303H13.0297V11.3736H13.2297ZM12.9297 10.3303H6.4093V10.5303H12.9297V10.3303ZM6.1093 10.6303V19.5197H6.3093V10.6303H6.1093ZM6.4093 19.8197H12.9297V19.6197H6.4093V19.8197ZM13.2297 19.5197V18.7764H13.0297V19.5197H13.2297ZM13.3297 18.6764H16.925V18.4764H13.3297V18.6764ZM2.1 19.8626V10.2874H1.9V19.8626H2.1ZM4.5684 7.75786C4.03124 7.75782 3.59497 7.78458 3.24364 7.85817C2.89145 7.93194 2.61778 8.05414 2.41256 8.24991C2.00341 8.6402 1.9 9.291 1.9 10.2874L2.1 10.2874C2.1 9.28298 2.21063 8.71894 2.5506 8.39463C2.71994 8.2331 2.95459 8.12305 3.28464 8.05392C3.61553 7.98462 4.03539 7.95782 4.56839 7.95786L4.5684 7.75786ZM4.4257 22.1921C3.92858 22.1921 3.53594 22.1653 3.22566 22.0962C2.91652 22.0274 2.69528 21.918 2.53449 21.757C2.37368 21.5959 2.26441 21.3743 2.1957 21.0646C2.12674 20.7538 2.09999 20.3605 2.1 19.8626L1.9 19.8626C1.89999 20.365 1.92673 20.7756 2.00045 21.1079C2.07443 21.4414 2.19703 21.7021 2.39296 21.8983C2.58889 22.0945 2.84924 22.2174 3.18221 22.2915C3.51403 22.3653 3.92401 22.3921 4.4257 22.3921V22.1921ZM17.025 18.7764V19.8626H17.225V18.7764H17.025ZM17.025 19.8626C17.025 20.3605 16.9982 20.7538 16.9293 21.0646C16.8606 21.3743 16.7513 21.5959 16.5905 21.757C16.4297 21.918 16.2085 22.0274 15.8993 22.0962C15.5891 22.1653 15.1964 22.1921 14.6993 22.1921V22.3921C15.201 22.3921 15.611 22.3653 15.9428 22.2915C16.2758 22.2174 16.5361 22.0945 16.732 21.8983C16.928 21.7021 17.0506 21.4414 17.1245 21.1079C17.1983 20.7756 17.225 20.3651 17.225 19.8626H17.025ZM14.6993 7.95786C15.1964 7.95786 15.5891 7.98466 15.8993 8.05372C16.2085 8.12253 16.4297 8.23194 16.5905 8.39298C16.7513 8.55404 16.8606 8.77566 16.9293 9.08535C16.9982 9.39617 17.025 9.78947 17.025 10.2874H17.225C17.225 9.78491 17.1983 9.37433 17.1245 9.04203C17.0506 8.70861 16.928 8.44791 16.732 8.25167C16.5361 8.05543 16.2758 7.93261 15.9428 7.8585C15.611 7.78465 15.201 7.75786 14.6993 7.75786V7.95786ZM17.025 10.2874V11.3736H17.225V10.2874H17.025ZM4.4257 22.3921L6.0093 22.3921L6.0093 22.1921L4.42571 22.1921L4.4257 22.3921ZM7.95025 23.95V22.4921H7.75025V23.95H7.95025ZM8.05025 22.3921L11.2888 22.3921L11.2888 22.1921L8.05025 22.1921L8.05025 22.3921ZM13.2297 23.95L13.2297 22.4921L13.0297 22.4921L13.0297 23.95L13.2297 23.95ZM13.3297 22.3921H14.6993V22.1921H13.3297V22.3921ZM14.6993 7.75786L13.3297 7.75787L13.3297 7.95787L14.6993 7.95786L14.6993 7.75786ZM11.3888 6.2V7.65787H11.5888V6.2H11.3888ZM11.2888 7.75787H8.05025V7.95787H11.2888V7.75787ZM6.10933 6.19999L6.1093 7.65787L6.3093 7.65788L6.30933 6.2L6.10933 6.19999ZM6.0093 7.75787L4.56839 7.75786L4.56839 7.95786L6.0093 7.95787L6.0093 7.75787ZM6.1093 7.65787C6.1093 7.7131 6.06453 7.75787 6.0093 7.75787L6.0093 7.95787C6.17498 7.95787 6.3093 7.82356 6.3093 7.65788L6.1093 7.65787ZM16.925 18.6764C16.9802 18.6764 17.025 18.7211 17.025 18.7764H17.225C17.225 18.6107 17.0907 18.4764 16.925 18.4764V18.6764ZM13.2297 18.7764C13.2297 18.7211 13.2745 18.6764 13.3297 18.6764V18.4764C13.164 18.4764 13.0297 18.6107 13.0297 18.7764H13.2297ZM12.9297 19.8197C13.0954 19.8197 13.2297 19.6854 13.2297 19.5197H13.0297C13.0297 19.5749 12.9849 19.6197 12.9297 19.6197V19.8197ZM6.1093 19.5197C6.1093 19.6854 6.24361 19.8197 6.4093 19.8197V19.6197C6.35407 19.6197 6.3093 19.5749 6.3093 19.5197H6.1093ZM6.4093 10.3303C6.24361 10.3303 6.1093 10.4646 6.1093 10.6303H6.3093C6.3093 10.5751 6.35407 10.5303 6.4093 10.5303V10.3303ZM13.2297 10.6303C13.2297 10.4646 13.0954 10.3303 12.9297 10.3303V10.5303C12.9849 10.5303 13.0297 10.5751 13.0297 10.6303H13.2297ZM13.3297 11.4736C13.2745 11.4736 13.2297 11.4288 13.2297 11.3736H13.0297C13.0297 11.5393 13.164 11.6736 13.3297 11.6736V11.4736ZM16.925 11.6736C17.0907 11.6736 17.225 11.5393 17.225 11.3736H17.025C17.025 11.4288 16.9802 11.4736 16.925 11.4736V11.6736ZM12.9297 24.25C13.0954 24.25 13.2297 24.1157 13.2297 23.95H13.0297C13.0297 24.0052 12.985 24.05 12.9297 24.05V24.25ZM11.3888 23.95C11.3888 24.1157 11.5231 24.25 11.6888 24.25V24.05C11.6336 24.05 11.5888 24.0052 11.5888 23.95H11.3888ZM11.5888 22.4921C11.5888 22.3264 11.4545 22.1921 11.2888 22.1921L11.2888 22.3921C11.344 22.3921 11.3888 22.4369 11.3888 22.4921H11.5888ZM7.65025 24.25C7.81593 24.25 7.95025 24.1157 7.95025 23.95H7.75025C7.75025 24.0052 7.70548 24.05 7.65025 24.05V24.25ZM11.3888 7.65787C11.3888 7.7131 11.344 7.75787 11.2888 7.75787V7.95787C11.4545 7.95787 11.5888 7.82356 11.5888 7.65787H11.3888ZM6.10933 23.95C6.10933 24.1157 6.24364 24.25 6.40933 24.25V24.05C6.3541 24.05 6.30933 24.0052 6.30933 23.95L6.10933 23.95ZM13.2297 22.4921C13.2297 22.4369 13.2745 22.3921 13.3297 22.3921V22.1921C13.164 22.1921 13.0297 22.3264 13.0297 22.4921H13.2297ZM6.3093 22.4921C6.3093 22.3264 6.17499 22.1921 6.0093 22.1921L6.0093 22.3921C6.06453 22.3921 6.1093 22.4369 6.1093 22.4921L6.3093 22.4921ZM7.95025 22.4921C7.95025 22.4369 7.99502 22.3921 8.05025 22.3921L8.05025 22.1921C7.88456 22.1921 7.75025 22.3264 7.75025 22.4921H7.95025ZM13.0297 7.65787C13.0297 7.82356 13.164 7.95787 13.3297 7.95787L13.3297 7.75787C13.2745 7.75787 13.2297 7.7131 13.2297 7.65787H13.0297ZM12.9297 6.1C12.985 6.1 13.0297 6.14477 13.0297 6.2H13.2297C13.2297 6.03431 13.0954 5.9 12.9297 5.9V6.1ZM11.6888 5.9C11.5231 5.9 11.3888 6.03431 11.3888 6.2H11.5888C11.5888 6.14477 11.6336 6.1 11.6888 6.1V5.9ZM7.75025 7.65787C7.75025 7.82356 7.88456 7.95787 8.05025 7.95787V7.75787C7.99502 7.75787 7.95025 7.7131 7.95025 7.65787H7.75025ZM7.65025 6.1C7.70548 6.1 7.75025 6.14477 7.75025 6.2H7.95025C7.95025 6.03431 7.81593 5.9 7.65025 5.9V6.1ZM6.40933 5.9C6.24364 5.9 6.10933 6.03431 6.10933 6.19999L6.30933 6.2C6.30933 6.14477 6.3541 6.1 6.40933 6.1V5.9Z" fill="#C7A033"/>
	<path d="M31 14.5C31 17.5376 28.5376 20 25.5 20C22.4624 20 20 17.5376 20 14.5C20 11.4624 22.4624 9 25.5 9C28.5376 9 31 11.4624 31 14.5Z" fill="white"/>
	<path d="M25.5 9C22.4612 9 20 11.5235 20 14.6391C20 17.1344 21.5744 19.242 23.7606 19.9892C24.0356 20.0386 24.1387 19.8694 24.1387 19.7214C24.1387 19.5874 24.1319 19.1434 24.1319 18.6711C22.75 18.9319 22.3925 18.3257 22.2825 18.0085C22.2206 17.8464 21.9525 17.3459 21.7188 17.212C21.5262 17.1062 21.2512 16.8454 21.7119 16.8384C22.145 16.8313 22.4544 17.2472 22.5575 17.4164C23.0525 18.2693 23.8431 18.0296 24.1594 17.8816C24.2075 17.5151 24.3519 17.2684 24.51 17.1274C23.2862 16.9864 22.0075 16.5 22.0075 14.3431C22.0075 13.7298 22.2206 13.2223 22.5713 12.8275C22.5163 12.6866 22.3237 12.1086 22.6262 11.3332C22.6262 11.3332 23.0869 11.1852 24.1387 11.9112C24.5787 11.7843 25.0463 11.7209 25.5138 11.7209C25.9813 11.7209 26.4488 11.7843 26.8888 11.9112C27.9406 11.1781 28.4013 11.3332 28.4013 11.3332C28.7038 12.1086 28.5113 12.6866 28.4563 12.8275C28.8069 13.2223 29.02 13.7228 29.02 14.3431C29.02 16.5071 27.7344 16.9864 26.5106 17.1274C26.71 17.3036 26.8819 17.6419 26.8819 18.1706C26.8819 18.9248 26.875 19.531 26.875 19.7214C26.875 19.8694 26.9781 20.0456 27.2531 19.9892C28.345 19.6113 29.2937 18.8918 29.9659 17.9321C30.638 16.9723 30.9997 15.8207 31 14.6391C31 11.5235 28.5388 9 25.5 9Z" fill="black"/>
</svg>
