<svg viewBox="0 0 126 126" fill="none" xmlns="http://www.w3.org/2000/svg">
	<path d="M0.408001 15.408C0.408001 7.12372 7.12373 0.408001 15.408 0.408001H110.592C118.876 0.408001 125.592 7.12373 125.592 15.408V110.593C125.592 118.877 118.876 125.593 110.592 125.593H15.408C7.12372 125.593 0.408001 118.877 0.408001 110.593V15.408Z" fill="#F0DB4F"/>
	<path d="M115.347 95.736C114.43 90.025 110.706 85.228 99.675 80.755C95.843 78.994 91.571 77.733 90.298 74.829C89.846 73.139 89.786 72.187 90.072 71.164C90.893 67.844 94.856 66.809 97.997 67.761C100.02 68.439 101.935 69.998 103.09 72.485C108.492 68.987 108.481 69.01 112.253 66.606C110.872 64.465 110.135 63.477 109.231 62.561C105.982 58.932 101.555 57.063 94.475 57.206L90.787 57.683C87.253 58.576 83.885 60.431 81.91 62.918C75.984 69.642 77.674 81.41 84.885 86.253C91.989 91.585 102.425 92.798 103.758 97.784C105.055 103.888 99.272 105.864 93.524 105.162C89.288 104.281 86.932 102.128 84.385 98.213C79.697 100.926 79.697 100.926 74.877 103.698C76.02 106.197 77.221 107.328 79.137 109.493C88.205 118.691 110.897 118.239 114.967 104.317C115.132 103.839 116.228 100.651 115.347 95.736ZM68.462 57.943H56.753L56.705 88.215C56.705 94.653 57.038 100.555 55.991 102.364C54.278 105.922 49.839 105.481 47.816 104.791C45.757 103.779 44.71 102.34 43.497 100.306C43.164 99.722 42.914 99.27 42.83 99.235L33.31 105.065C34.893 108.314 37.225 111.134 40.212 112.966C44.674 115.644 50.671 116.465 56.943 115.025C61.025 113.836 64.547 111.373 66.391 107.624C69.057 102.709 68.485 96.76 68.461 90.18C68.521 79.445 68.462 68.712 68.462 57.943Z" fill="white"/>
</svg>
